<?xml version="1.0" standalone="no"?>
<!DOCTYPE svg PUBLIC "-//W3C//DTD SVG 20010904//EN"
 "http://www.w3.org/TR/2001/REC-SVG-20010904/DTD/svg10.dtd">
<svg version="1.0" xmlns="http://www.w3.org/2000/svg"
 width="446.000000pt" height="446.000000pt" viewBox="0 0 446.000000 446.000000"
 preserveAspectRatio="xMidYMid meet">
<metadata>
Created by potrace 1.11, written by Peter Selinger 2001-2013
</metadata>
<g transform="translate(0.000000,446.000000) scale(0.100000,-0.100000)"
fill="#000000" stroke="none">
<path d="M1930 4451 c0 -5 -21 -11 -47 -14 -79 -9 -197 -33 -218 -44 -11 -6
-40 -13 -64 -17 -24 -3 -55 -13 -67 -21 -13 -8 -32 -15 -44 -15 -11 0 -20 -5
-20 -11 0 -7 -11 -9 -30 -5 -16 3 -30 1 -30 -4 0 -5 -17 -16 -37 -26 -21 -9
-47 -20 -58 -25 -11 -5 -32 -13 -47 -19 -16 -5 -28 -14 -28 -20 0 -5 -7 -10
-15 -10 -8 0 -34 -11 -59 -25 -25 -14 -54 -25 -65 -25 -12 0 -21 -4 -21 -10 0
-9 -58 -52 -101 -75 -11 -5 -19 -13 -19 -17 0 -5 -5 -8 -11 -8 -6 0 -34 -19
-63 -42 -110 -88 -110 -88 -118 -75 -5 7 -8 2 -8 -15 0 -16 -3 -28 -7 -28 -5
0 -26 -18 -48 -40 -22 -21 -46 -39 -52 -40 -7 0 -13 -4 -13 -8 0 -10 -24 -39
-82 -99 -22 -24 -38 -43 -35 -43 2 0 -12 -18 -32 -39 -20 -21 -47 -55 -61 -76
-14 -20 -29 -42 -35 -48 -5 -7 -23 -32 -40 -57 -16 -25 -37 -53 -47 -63 -10
-10 -18 -26 -18 -37 0 -10 -11 -36 -25 -56 -14 -20 -25 -45 -25 -55 0 -11 -4
-19 -8 -19 -9 0 -40 -67 -63 -132 -7 -21 -19 -38 -27 -38 -8 0 -11 -7 -8 -18
3 -10 -4 -42 -15 -72 -21 -54 -42 -127 -60 -205 -28 -124 -39 -182 -39 -202 0
-13 -4 -23 -10 -23 -13 0 -14 -597 -1 -602 9 -3 19 -61 28 -160 3 -32 8 -58
13 -58 4 0 10 -15 13 -32 2 -18 18 -71 35 -118 17 -46 28 -88 26 -92 -3 -5 0
-8 5 -8 6 0 11 -9 11 -20 0 -11 5 -20 10 -20 6 0 10 -8 10 -17 0 -9 8 -35 18
-57 11 -23 29 -65 42 -93 13 -29 27 -53 32 -53 4 0 8 -6 8 -13 0 -18 24 -67
33 -67 4 0 7 -7 7 -15 0 -8 4 -15 8 -15 4 0 14 -16 21 -35 7 -19 16 -35 20
-35 5 0 14 -13 21 -30 7 -16 16 -30 21 -30 4 0 11 -9 14 -20 3 -11 12 -26 18
-32 7 -7 24 -29 37 -48 13 -19 30 -39 37 -43 7 -4 13 -13 13 -20 0 -7 16 -23
34 -37 19 -14 33 -26 31 -28 -4 -4 161 -172 168 -172 2 0 24 -19 48 -41 24
-23 64 -55 89 -72 25 -17 47 -34 48 -39 2 -4 10 -8 18 -8 8 0 14 -4 14 -8 0
-5 12 -15 28 -23 15 -8 36 -22 46 -31 11 -10 26 -18 33 -18 7 0 13 -4 13 -10
0 -5 9 -10 20 -10 11 0 20 -4 20 -10 0 -5 6 -10 13 -10 8 0 22 -9 32 -20 10
-11 29 -20 42 -20 12 0 23 -3 23 -7 0 -9 49 -33 67 -33 7 0 13 -4 13 -10 0 -5
11 -10 25 -10 14 0 25 -4 25 -8 0 -5 19 -14 43 -21 23 -7 50 -17 59 -22 10 -5
26 -9 36 -9 10 0 22 -3 26 -7 10 -11 79 -33 103 -33 12 0 28 -6 35 -14 8 -7
36 -16 63 -19 28 -3 66 -11 85 -16 19 -6 52 -11 72 -11 20 0 40 -4 43 -10 4
-6 113 -10 296 -10 186 0 289 4 289 10 0 6 22 10 48 10 60 0 162 20 162 31 0
5 20 9 44 9 25 0 48 5 51 10 3 6 19 10 36 10 16 0 29 5 29 10 0 6 11 10 24 10
14 0 28 5 31 10 3 6 19 10 35 10 16 0 31 4 35 9 3 5 20 13 38 16 17 4 51 18
75 31 23 13 52 24 63 24 11 0 18 4 15 9 -3 4 14 14 37 22 23 7 49 21 58 31 9
10 24 18 33 18 9 0 16 4 16 8 0 4 16 14 35 21 19 7 33 17 30 22 -4 5 1 9 10 9
14 0 69 32 85 50 3 3 22 14 42 24 21 10 35 23 32 28 -3 5 3 12 15 15 12 3 21
9 21 14 0 5 5 9 10 9 11 0 28 14 96 78 19 18 39 30 43 27 5 -2 8 3 7 12 0 10
9 20 24 24 14 4 21 7 16 8 -8 1 40 56 99 112 16 16 26 29 21 29 -5 0 5 13 22
29 16 16 28 32 24 35 -3 3 0 6 6 6 6 0 13 9 17 19 3 11 14 23 25 26 10 3 21
16 24 29 5 20 15 35 56 84 6 6 8 12 5 12 -4 0 7 19 24 42 17 23 31 47 31 54 0
6 7 17 15 24 8 7 13 16 10 20 -3 5 -1 10 3 12 13 5 114 208 117 233 0 6 8 27
18 49 9 21 17 44 17 52 0 7 5 26 11 41 22 54 27 68 38 109 6 23 11 52 11 66 0
13 4 28 9 34 12 11 20 50 28 134 3 36 9 67 14 68 12 5 12 579 0 584 -4 2 -11
28 -15 58 -3 30 -11 73 -17 95 -5 22 -13 58 -16 80 -3 22 -9 42 -14 43 -5 2
-9 12 -9 21 0 28 -86 266 -128 355 -20 44 -38 84 -38 88 -1 4 -2 13 -3 18 0 6
-8 10 -17 10 -8 0 -13 4 -9 9 3 5 -2 16 -10 24 -8 9 -15 22 -15 30 0 9 -4 17
-9 19 -5 2 -11 10 -13 18 -2 8 -13 25 -25 37 -13 13 -23 28 -23 32 0 7 -11 22
-50 68 -5 7 -10 17 -10 22 0 6 -6 14 -14 18 -8 4 -16 14 -18 22 -2 8 -21 33
-43 56 -22 23 -64 69 -94 103 -30 34 -60 62 -68 62 -8 0 -12 4 -9 8 6 10 -39
52 -55 52 -5 0 -7 5 -4 10 3 6 2 10 -3 10 -5 0 -32 23 -60 50 -28 28 -55 50
-59 50 -4 0 -24 14 -43 30 -19 16 -38 30 -42 30 -4 0 -13 6 -20 13 -20 18 -50
37 -70 43 -10 4 -18 10 -18 14 0 4 -11 11 -24 14 -14 3 -31 12 -38 19 -21 19
-56 37 -73 37 -8 0 -15 5 -15 10 0 6 -7 10 -15 10 -8 0 -15 5 -15 10 0 6 -6
10 -13 10 -8 0 -41 14 -75 30 -34 17 -71 30 -82 30 -11 0 -20 5 -20 10 0 6 -9
10 -19 10 -11 0 -23 5 -26 10 -3 6 -17 10 -30 10 -13 0 -27 5 -30 10 -3 6 -17
10 -30 10 -13 0 -27 5 -30 10 -3 6 -16 10 -28 10 -12 0 -31 7 -41 15 -11 8
-30 15 -42 15 -12 0 -25 6 -27 13 -3 6 -6 8 -6 2 -1 -11 -101 -7 -101 4 0 4
-19 8 -42 10 -24 1 -44 6 -46 12 -5 12 -612 12 -612 0z"/>
</g>
</svg>
